<svg width="510" height="454" viewBox="0 0 510 454" fill="none" xmlns="http://www.w3.org/2000/svg">
<path d="M255 0C193.384 0 143.438 49.9464 143.438 111.563C143.438 161.376 216.352 252.167 244.286 285.122C249.944 291.798 260.065 291.798 265.714 285.122C293.648 252.167 366.563 161.376 366.563 111.563C366.563 49.9464 316.616 0 255 0ZM255 148.75C234.458 148.75 217.813 132.104 217.813 111.563C217.813 91.0208 234.458 74.375 255 74.375C275.542 74.375 292.188 91.0208 292.188 111.563C292.188 132.104 275.542 148.75 255 148.75ZM17.8146 191.206C12.5568 193.309 8.04959 196.939 4.8743 201.627C1.69901 206.316 0.00125925 211.849 0 217.511L0 439.149C0 449.172 10.1203 456.025 19.426 452.306L141.667 396.667V190.294C133.84 176.145 127.438 162.368 122.852 149.193L17.8146 191.206ZM255 318.458C242.542 318.458 230.757 312.986 222.673 303.441C205.266 282.899 186.752 259.507 170 235.512V396.658L340 453.324V235.521C323.248 259.507 304.743 282.908 287.327 303.45C279.243 312.986 267.458 318.458 255 318.458ZM490.574 142.694L368.333 198.333V453.333L492.185 403.794C497.444 401.692 501.952 398.063 505.127 393.374C508.303 388.685 510 383.152 510 377.489V155.851C510 145.828 499.88 138.975 490.574 142.694Z" fill="#28A745"/>
<path d="M247.638 238.884C189.746 154.958 179 146.344 179 115.5C179 73.2501 213.25 39 255.5 39C297.75 39 332 73.2501 332 115.5C332 146.344 321.254 154.958 263.362 238.884C259.563 244.372 251.437 244.372 247.638 238.884ZM255.5 147.375C273.104 147.375 287.375 133.104 287.375 115.5C287.375 97.8958 273.104 83.625 255.5 83.625C237.896 83.625 223.625 97.8958 223.625 115.5C223.625 133.104 237.896 147.375 255.5 147.375Z" fill="#007BFF"/>
<path d="M205.893 136.536C216.811 136.536 225.661 127.686 225.661 116.768C225.661 105.851 216.811 97 205.893 97C198.576 97 192.188 100.975 188.77 106.884H186.125C169.748 106.884 156.473 120.16 156.473 136.536V225.493C151.014 225.493 146.542 229.928 147.038 235.365C149.336 260.581 160.384 284.323 178.434 302.374C191.67 315.61 207.967 325.08 225.661 330.097V353.987C225.661 366.899 233.915 377.883 245.433 381.953C245.855 421.168 277.775 452.827 317.089 452.827C356.666 452.827 388.749 420.745 388.749 381.168V341.631C388.749 321.16 405.343 304.566 425.814 304.566C446.285 304.566 462.88 321.16 462.88 341.631V365.558C451.363 369.628 443.111 380.612 443.111 393.523C443.111 409.9 456.387 423.175 472.764 423.175C489.141 423.175 502.416 409.9 502.416 393.523C502.416 380.612 494.165 369.628 482.648 365.558V341.631C482.648 310.243 457.202 284.798 425.814 284.798C394.426 284.798 368.981 310.243 368.981 341.631V381.168C368.981 409.827 345.748 433.059 317.089 433.059C288.691 433.059 265.622 410.248 265.204 381.95C276.718 377.877 284.966 366.895 284.966 353.987V330.097C302.66 325.08 318.958 315.61 332.194 302.374C350.244 284.323 361.292 260.581 363.59 235.365C364.086 229.928 359.614 225.493 354.155 225.493V136.536C354.155 120.16 340.879 106.884 324.502 106.884H321.857C318.439 100.975 312.051 97 304.734 97C293.816 97 284.966 105.851 284.966 116.768C284.966 127.686 293.816 136.536 304.734 136.536C312.051 136.536 318.439 132.561 321.857 126.652H324.502C329.961 126.652 334.386 131.078 334.386 136.536V225.493H336.457C330.998 225.493 326.643 229.94 325.889 235.347C323.759 250.605 316.72 264.862 305.702 275.881C292.337 289.245 274.213 296.753 255.314 296.753C236.415 296.753 218.29 289.245 204.926 275.881C193.907 264.862 186.869 250.605 184.739 235.347C183.984 229.94 179.63 225.493 174.171 225.493H176.241V136.536C176.241 131.078 180.666 126.652 186.125 126.652H188.77C192.188 132.561 198.576 136.536 205.893 136.536Z" fill="#004A80"/>
</svg>
